COVER ::
 
http://i.minus.com/iFNzl2JOqSoyJ.png


SCREEN ::
 
http://i.minus.com/i70X4JLbBgFHV.png
 
http://i.minus.com/iLGU74I8gqukV.png
 
http://i.minus.com/ixLioaeBkBwGW.png
 
http://i.minus.com/izmHMQc5itSsa.png
 
http://i.minus.com/invqXpXfoKqfj.jpg


General Info ::
Format                           : AVI
Format/Info                      : Audio Video Interleave
File size                        : 40.0 MiB
Duration                         : 3mn 1s
Overall bit rate                 : 1 846 Kbps


Video Info ::
ID                               : 0
Format                           : AVC
Format/Info                      : Advanced Video Codec
Format profile                   : High@L5.1
Format settings, CABAC           : Yes
Format settings, ReFrames        : 2 frames
Codec ID                         : H264
Duration                         : 10s 0ms
Bit rate                         : 1 515 Kbps
Width                            : 1 280 pixels
Height                           : 544 pixels
Display aspect ratio             : 2.35:1
Frame rate                       : 30.000 fps
Color space                      : YUV
Chroma subsampling               : 4:2:0
Bit depth                        : 8 bits
Scan type                        : Progressive
Bits/(Pixel*Frame)               : 0.073
Stream size                      : 32.8 MiB (82%)


Audio Info ::
ID                               : 1
Format                           : MPEG Audio
Format version                   : Version 1
Format profile                   : Layer 3
Codec ID                         : 55
Codec ID/Hint                    : MP3
Duration                         : 3mn 1s
Bit rate mode                    : Constant
Bit rate                         : 320 Kbps
Channel(s)                       : 2 channels
Sampling rate                    : 48.0 KHz
Compression mode                 : Lossy
Stream size                      : 6.94 MiB (17%)